<?xml version="1.0" encoding="UTF-8"?>
<svg width="752pt" height="752pt" version="1.1" viewBox="0 0 752 752" xmlns="http://www.w3.org/2000/svg">
 <path d="m402.05 446.01v-17.48h17.465v-17.453h17.465v-17.48h17.457v17.48h17.465v-17.48h17.469l0.003906-17.449h-34.934v-34.934h52.414v-17.445h-34.949v-17.48h69.852v-69.867h-17.453v-17.453h-104.8l-17.457 0.007812v17.453h-17.465v87.348h-17.453v17.453h-17.48v17.453h-17.453v17.48l-17.477-0.011718v17.445h-52.086v-17.449h-17.453v-17.48h-17.48v-34.898h-17.449v69.84h17.453v17.48h17.48v17.453h17.453v17.48h17.156v17.156h17.48v17.449h17.551v52.418h34.934v-17.48h-17.48v-34.582h17.387v-17.48h17.48v17.48h17.453v34.582h-0.097656v17.48h34.934v-17.48l-17.387-0.007812v-69.516m17.469-157.2v-17.48h17.465v17.48z"/>
</svg>
